<?xml version="1.0" standalone="no"?>
<!DOCTYPE svg PUBLIC "-//W3C//DTD SVG 20010904//EN"
 "http://www.w3.org/TR/2001/REC-SVG-20010904/DTD/svg10.dtd">
<svg version="1.0" xmlns="http://www.w3.org/2000/svg"
 width="256.000000pt" height="256.000000pt" viewBox="0 0 256.000000 256.000000"
 preserveAspectRatio="xMidYMid meet">
<metadata>
Created by potrace 1.14, written by Peter Selinger 2001-2017
</metadata>
<g transform="translate(0.000000,256.000000) scale(0.100000,-0.100000)"
fill="#000000" stroke="none">
<path d="M2030 2552 c-72 -7 -267 -55 -338 -83 -143 -57 -266 -126 -369 -208
-61 -48 -32 -50 -302 18 l-195 49 -149 -150 -150 -149 151 -151 c130 -129 150
-154 139 -167 -6 -9 -54 -67 -106 -129 l-93 -113 23 -26 c13 -14 48 -50 78
-80 l54 -55 -141 -141 -141 -141 267 -268 267 -267 142 141 142 142 64 -64
c101 -103 82 -102 194 -10 54 45 111 93 126 107 34 29 14 43 195 -139 l142
-142 150 150 c100 99 148 154 144 164 -3 8 -9 33 -14 55 -4 22 -27 112 -49
200 -22 88 -41 165 -41 170 0 6 12 24 26 40 111 128 219 347 269 545 33 129
35 142 39 305 4 139 -15 336 -35 361 -21 27 -349 51 -489 36z"/>
<path d="M192 727 l-192 -192 53 -53 53 -53 192 191 192 191 -52 55 c-28 30
-52 54 -52 54 -1 0 -88 -87 -194 -193z"/>
<path d="M352 457 l-242 -242 48 -49 c27 -27 52 -50 56 -50 5 -1 264 253 436
428 l54 56 -49 50 c-28 27 -52 50 -55 50 -3 0 -114 -109 -248 -243z"/>
<path d="M621 298 l-192 -191 53 -54 53 -53 187 187 c104 103 188 192 188 198
0 5 -22 31 -49 57 l-48 47 -192 -191z"/>
</g>
</svg>
